<svg xmlns="http://www.w3.org/2000/svg" width="300" height="240" fill="none" aria-labelledby="descId" role="img" viewBox="0 0 300 240"><title id="titleId"/><desc id="descId"/><style>.header{font:600 18px &apos;Segoe UI&apos;,Ubuntu,Sans-Serif;fill:#006aff;animation:fadeInAnimation .8s ease-in-out forwards}@supports (-moz-appearance:auto){.header{font-size:15.5px}}.lang-name{font:400 11px &quot;Segoe UI&quot;,Ubuntu,Sans-Serif;fill:#417e87}.stagger{opacity:0;animation:fadeInAnimation .3s ease-in-out forwards}#rect-mask rect{animation:slideInAnimation 1s ease-in-out forwards}</style><rect width="299" height="99%" x=".5" y=".5" fill="#ffffff00" stroke="#e4e2e2" stroke-opacity="1" data-testid="card-bg" rx="4.5"/><g data-testid="card-title"><g><text x="0" y="0" class="header" data-testid="header" transform="translate(25, 35) translate(0, 0)">最常用的语言</text></g></g><g data-testid="main-card-body" transform="translate(0, 55)"><svg x="25" data-testid="lang-items"><mask id="rect-mask"><rect width="250" height="8" x="0" y="0" fill="#fff" rx="5"/></mask><rect width="139.89" height="8" x="0" y="0" fill="#3572A5" data-testid="lang-progress" mask="url(#rect-mask)"/><rect width="42.32" height="8" x="139.89" y="0" fill="#dea584" data-testid="lang-progress" mask="url(#rect-mask)"/><rect width="18.65" height="8" x="182.21" y="0" fill="#e34c26" data-testid="lang-progress" mask="url(#rect-mask)"/><rect width="14.7" height="8" x="200.86" y="0" fill="#3178c6" data-testid="lang-progress" mask="url(#rect-mask)"/><rect width="13.69" height="8" x="215.56" y="0" fill="#89e051" data-testid="lang-progress" mask="url(#rect-mask)"/><rect width="11.48" height="8" x="229.25" y="0" fill="#ff5a03" data-testid="lang-progress" mask="url(#rect-mask)"/><rect width="14.3" height="8" x="240.73" y="0" fill="#fcb32c" data-testid="lang-progress" mask="url(#rect-mask)"/><rect width="11.97" height="8" x="245.03" y="0" fill="#639" data-testid="lang-progress" mask="url(#rect-mask)"/><rect width="11.77" height="8" x="247" y="0" fill="#00ADD8" data-testid="lang-progress" mask="url(#rect-mask)"/><rect width="10.82" height="8" x="248.77" y="0" fill="#f1e05a" data-testid="lang-progress" mask="url(#rect-mask)"/><rect width="10.41" height="8" x="249.59" y="0" fill="#384d54" data-testid="lang-progress" mask="url(#rect-mask)"/><g><g><g><g class="stagger" style="animation-delay:450ms" transform="translate(0, 25) translate(0, 0) translate(0, 0)"><circle cx="5" cy="6" r="5" fill="#3572A5"/><text x="15" y="10" class="lang-name" data-testid="lang-name">Python 55.95%</text></g></g><g><g class="stagger" style="animation-delay:600ms" transform="translate(0, 25) translate(0, 0) translate(0, 25)"><circle cx="5" cy="6" r="5" fill="#dea584"/><text x="15" y="10" class="lang-name" data-testid="lang-name">Rust 16.93%</text></g></g><g><g class="stagger" style="animation-delay:750ms" transform="translate(0, 25) translate(0, 0) translate(0, 50)"><circle cx="5" cy="6" r="5" fill="#e34c26"/><text x="15" y="10" class="lang-name" data-testid="lang-name">HTML 7.46%</text></g></g><g><g class="stagger" style="animation-delay:900ms" transform="translate(0, 25) translate(0, 0) translate(0, 75)"><circle cx="5" cy="6" r="5" fill="#3178c6"/><text x="15" y="10" class="lang-name" data-testid="lang-name">TypeScript 5.88%</text></g></g><g><g class="stagger" style="animation-delay:1050ms" transform="translate(0, 25) translate(0, 0) translate(0, 100)"><circle cx="5" cy="6" r="5" fill="#89e051"/><text x="15" y="10" class="lang-name" data-testid="lang-name">Shell 5.48%</text></g></g><g><g class="stagger" style="animation-delay:1200ms" transform="translate(0, 25) translate(0, 0) translate(0, 125)"><circle cx="5" cy="6" r="5" fill="#ff5a03"/><text x="15" y="10" class="lang-name" data-testid="lang-name">Astro 4.59%</text></g></g></g><g><g><g class="stagger" style="animation-delay:450ms" transform="translate(0, 25) translate(150, 0) translate(0, 0)"><circle cx="5" cy="6" r="5" fill="#fcb32c"/><text x="15" y="10" class="lang-name" data-testid="lang-name">MDX 1.72%</text></g></g><g><g class="stagger" style="animation-delay:600ms" transform="translate(0, 25) translate(150, 0) translate(0, 25)"><circle cx="5" cy="6" r="5" fill="#639"/><text x="15" y="10" class="lang-name" data-testid="lang-name">CSS 0.79%</text></g></g><g><g class="stagger" style="animation-delay:750ms" transform="translate(0, 25) translate(150, 0) translate(0, 50)"><circle cx="5" cy="6" r="5" fill="#00ADD8"/><text x="15" y="10" class="lang-name" data-testid="lang-name">Go 0.71%</text></g></g><g><g class="stagger" style="animation-delay:900ms" transform="translate(0, 25) translate(150, 0) translate(0, 75)"><circle cx="5" cy="6" r="5" fill="#f1e05a"/><text x="15" y="10" class="lang-name" data-testid="lang-name">JavaScript 0.33%</text></g></g><g><g class="stagger" style="animation-delay:1050ms" transform="translate(0, 25) translate(150, 0) translate(0, 100)"><circle cx="5" cy="6" r="5" fill="#384d54"/><text x="15" y="10" class="lang-name" data-testid="lang-name">Dockerfile 0.16%</text></g></g></g></g></svg></g></svg>