<svg xmlns="http://www.w3.org/2000/svg" width="300" height="215" fill="none" aria-labelledby="descId" role="img" viewBox="0 0 300 215"><title id="titleId"/><desc id="descId"/><style>.header{font:600 18px &apos;Segoe UI&apos;,Ubuntu,Sans-Serif;fill:#006aff;animation:fadeInAnimation .8s ease-in-out forwards}@supports (-moz-appearance:auto){.header{font-size:15.5px}}.lang-name{font:400 11px &quot;Segoe UI&quot;,Ubuntu,Sans-Serif;fill:#417e87}.stagger{opacity:0;animation:fadeInAnimation .3s ease-in-out forwards}#rect-mask rect{animation:slideInAnimation 1s ease-in-out forwards}</style><rect width="299" height="99%" x=".5" y=".5" fill="#ffffff00" stroke="#e4e2e2" stroke-opacity="1" data-testid="card-bg" rx="4.5"/><g data-testid="card-title"><g><text x="0" y="0" class="header" data-testid="header" transform="translate(25, 35) translate(0, 0)">最常用的语言</text></g></g><g data-testid="main-card-body" transform="translate(0, 55)"><svg x="25" data-testid="lang-items"><mask id="rect-mask"><rect width="250" height="8" x="0" y="0" fill="#fff" rx="5"/></mask><rect width="176.03" height="8" x="0" y="0" fill="#3572A5" data-testid="lang-progress" mask="url(#rect-mask)"/><rect width="20.17" height="8" x="176.03" y="0" fill="#89e051" data-testid="lang-progress" mask="url(#rect-mask)"/><rect width="19.76" height="8" x="196.2" y="0" fill="#dea584" data-testid="lang-progress" mask="url(#rect-mask)"/><rect width="13.82" height="8" x="215.96" y="0" fill="#ff5a03" data-testid="lang-progress" mask="url(#rect-mask)"/><rect width="17.06" height="8" x="229.78" y="0" fill="#3178c6" data-testid="lang-progress" mask="url(#rect-mask)"/><rect width="16.85" height="8" x="236.84" y="0" fill="#fcb32c" data-testid="lang-progress" mask="url(#rect-mask)"/><rect width="12.81" height="8" x="243.69" y="0" fill="#00ADD8" data-testid="lang-progress" mask="url(#rect-mask)"/><rect width="12.12" height="8" x="246.5" y="0" fill="#639" data-testid="lang-progress" mask="url(#rect-mask)"/><rect width="11.3" height="8" x="248.62" y="0" fill="#f1e05a" data-testid="lang-progress" mask="url(#rect-mask)"/><rect width="10.09" height="8" x="249.92" y="0" fill="#384d54" data-testid="lang-progress" mask="url(#rect-mask)"/><g><g><g><g class="stagger" transform="translate(0, 25) translate(0, 0) translate(0, 0)" style="animation-delay:450ms"><circle cx="5" cy="6" r="5" fill="#3572A5"/><text x="15" y="10" class="lang-name" data-testid="lang-name">Python 70.41%</text></g></g><g><g class="stagger" transform="translate(0, 25) translate(0, 0) translate(0, 25)" style="animation-delay:600ms"><circle cx="5" cy="6" r="5" fill="#89e051"/><text x="15" y="10" class="lang-name" data-testid="lang-name">Shell 8.07%</text></g></g><g><g class="stagger" transform="translate(0, 25) translate(0, 0) translate(0, 50)" style="animation-delay:750ms"><circle cx="5" cy="6" r="5" fill="#dea584"/><text x="15" y="10" class="lang-name" data-testid="lang-name">Rust 7.90%</text></g></g><g><g class="stagger" transform="translate(0, 25) translate(0, 0) translate(0, 75)" style="animation-delay:900ms"><circle cx="5" cy="6" r="5" fill="#ff5a03"/><text x="15" y="10" class="lang-name" data-testid="lang-name">Astro 5.53%</text></g></g><g><g class="stagger" transform="translate(0, 25) translate(0, 0) translate(0, 100)" style="animation-delay:1050ms"><circle cx="5" cy="6" r="5" fill="#3178c6"/><text x="15" y="10" class="lang-name" data-testid="lang-name">TypeScript 2.83%</text></g></g></g><g><g><g class="stagger" transform="translate(0, 25) translate(150, 0) translate(0, 0)" style="animation-delay:450ms"><circle cx="5" cy="6" r="5" fill="#fcb32c"/><text x="15" y="10" class="lang-name" data-testid="lang-name">MDX 2.74%</text></g></g><g><g class="stagger" transform="translate(0, 25) translate(150, 0) translate(0, 25)" style="animation-delay:600ms"><circle cx="5" cy="6" r="5" fill="#00ADD8"/><text x="15" y="10" class="lang-name" data-testid="lang-name">Go 1.12%</text></g></g><g><g class="stagger" transform="translate(0, 25) translate(150, 0) translate(0, 50)" style="animation-delay:750ms"><circle cx="5" cy="6" r="5" fill="#639"/><text x="15" y="10" class="lang-name" data-testid="lang-name">CSS 0.85%</text></g></g><g><g class="stagger" transform="translate(0, 25) translate(150, 0) translate(0, 75)" style="animation-delay:900ms"><circle cx="5" cy="6" r="5" fill="#f1e05a"/><text x="15" y="10" class="lang-name" data-testid="lang-name">JavaScript 0.52%</text></g></g><g><g class="stagger" transform="translate(0, 25) translate(150, 0) translate(0, 100)" style="animation-delay:1050ms"><circle cx="5" cy="6" r="5" fill="#384d54"/><text x="15" y="10" class="lang-name" data-testid="lang-name">Dockerfile 0.04%</text></g></g></g></g></svg></g></svg>